<?xml version="1.0" standalone="no"?><!DOCTYPE svg PUBLIC "-//W3C//DTD SVG 1.1//EN" "http://www.w3.org/Graphics/SVG/1.1/DTD/svg11.dtd"><svg t="1740815580851" class="icon" viewBox="0 0 1024 1024" version="1.1" xmlns="http://www.w3.org/2000/svg" p-id="6426" xmlns:xlink="http://www.w3.org/1999/xlink" width="200" height="200"><path d="M512 69.818182c244.200727 0 442.181818 197.981091 442.181818 442.181818s-197.981091 442.181818-442.181818 442.181818S69.818182 756.200727 69.818182 512 267.799273 69.818182 512 69.818182z m-104.727273 279.272727a34.909091 34.909091 0 0 0-34.909091 34.909091v256a34.909091 34.909091 0 0 0 69.818182 0v-256a34.909091 34.909091 0 0 0-34.909091-34.909091z m209.454546 0a34.909091 34.909091 0 0 0-34.909091 34.909091v256a34.909091 34.909091 0 0 0 69.818182 0v-256a34.909091 34.909091 0 0 0-34.909091-34.909091z" fill="#ffffff" p-id="6427"></path></svg>